<?xml version="1.0" encoding="UTF-8"?>
<svg xmlns="http://www.w3.org/2000/svg" width="1200" height="1200" viewBox="0 0 1200 1200" role="img" aria-label="Angora Binicilik Spor Kulübü Logo">
  <rect width="100%" height="100%" fill="#050505"/>
  <g fill="#D4AF37" stroke="none">
    <path d="M 477.0 461.0 L 475.0 476.0 L 472.0 480.0 L 474.0 483.0 L 475.0 481.0 L 477.0 482.0 L 477.0 479.0 L 487.0 476.0 L 489.0 478.0 L 482.0 481.0 L 490.0 481.0 L 491.0 483.0 L 494.0 481.0 L 522.0 497.0 L 531.0 500.0 L 520.0 495.0 L 520.0 492.0 L 534.0 497.0 L 534.0 501.0 L 534.0 499.0 L 537.0 498.0 L 537.0 503.0 L 547.0 506.0 L 551.0 503.0 L 551.0 507.0 L 564.0 510.0 L 580.0 511.0 L 560.0 507.0 L 559.0 505.0 L 573.0 504.0 L 582.0 498.0 L 580.0 497.0 L 581.0 495.0 L 586.0 496.0 L 584.0 499.0 L 588.0 496.0 L 590.0 503.0 L 592.0 502.0 L 591.0 497.0 L 586.0 495.0 L 592.0 470.0 L 589.0 468.0 L 590.0 466.0 L 560.0 465.0 L 545.0 462.0 L 535.0 457.0 L 523.0 445.0 L 522.0 439.0 L 522.0 444.0 L 528.0 454.0 L 527.0 457.0 L 530.0 459.0 L 527.0 461.0 L 533.0 461.0 L 534.0 465.0 L 538.0 464.0 L 541.0 469.0 L 541.0 466.0 L 544.0 465.0 L 546.0 467.0 L 545.0 469.0 L 547.0 468.0 L 552.0 471.0 L 550.0 474.0 L 552.0 475.0 L 554.0 472.0 L 557.0 473.0 L 556.0 476.0 L 553.0 478.0 L 547.0 477.0 L 545.0 480.0 L 543.0 478.0 L 540.0 482.0 L 540.0 478.0 L 537.0 478.0 L 540.0 473.0 L 537.0 476.0 L 535.0 475.0 L 534.0 478.0 L 530.0 474.0 L 532.0 471.0 L 528.0 472.0 L 530.0 473.0 L 528.0 475.0 L 530.0 474.0 L 531.0 476.0 L 527.0 478.0 L 525.0 476.0 L 526.0 473.0 L 517.0 468.0 L 519.0 465.0 L 513.0 467.0 L 511.0 463.0 L 508.0 464.0 L 505.0 459.0 L 501.0 462.0 L 501.0 458.0 L 499.0 459.0 L 493.0 456.0 L 491.0 458.0 L 490.0 455.0 L 488.0 457.0 L 487.0 455.0 L 488.0 457.0 L 486.0 459.0 L 482.0 457.0 Z"/>
    <path d="M 475.0 535.0 L 470.0 555.0 L 457.0 575.0 L 460.0 578.0 L 460.0 583.0 L 474.0 591.0 L 511.0 620.0 L 487.0 601.0 L 481.0 593.0 L 485.0 589.0 L 531.0 627.0 L 529.0 633.0 L 531.0 631.0 L 534.0 633.0 L 532.0 635.0 L 536.0 641.0 L 544.0 643.0 L 552.0 639.0 L 555.0 647.0 L 553.0 649.0 L 547.0 647.0 L 555.0 655.0 L 551.0 656.0 L 548.0 661.0 L 552.0 657.0 L 554.0 658.0 L 553.0 661.0 L 556.0 657.0 L 563.0 658.0 L 550.0 632.0 L 542.0 626.0 L 541.0 630.0 L 535.0 632.0 L 534.0 627.0 L 538.0 623.0 L 533.0 617.0 L 531.0 618.0 L 514.0 601.0 L 508.0 599.0 L 507.0 595.0 L 503.0 595.0 L 493.0 583.0 L 493.0 564.0 L 511.0 540.0 L 519.0 520.0 L 515.0 531.0 L 510.0 535.0 L 508.0 533.0 L 506.0 536.0 L 498.0 536.0 L 494.0 531.0 L 483.0 531.0 L 481.0 537.0 L 483.0 538.0 L 478.0 550.0 L 479.0 557.0 L 474.0 567.0 L 479.0 559.0 L 481.0 562.0 L 473.0 573.0 L 475.0 574.0 L 473.0 581.0 L 479.0 589.0 L 477.0 591.0 L 462.0 578.0 L 475.0 545.0 Z"/>
    <path d="M 726.0 526.0 L 707.0 554.0 L 707.0 549.0 L 714.0 535.0 L 711.0 539.0 L 704.0 539.0 L 699.0 534.0 L 695.0 535.0 L 694.0 540.0 L 686.0 553.0 L 686.0 556.0 L 689.0 556.0 L 692.0 553.0 L 691.0 557.0 L 693.0 558.0 L 686.0 571.0 L 677.0 580.0 L 676.0 579.0 L 675.0 581.0 L 677.0 583.0 L 671.0 592.0 L 670.0 590.0 L 673.0 585.0 L 671.0 587.0 L 670.0 585.0 L 669.0 593.0 L 671.0 592.0 L 671.0 595.0 L 674.0 595.0 L 671.0 604.0 L 666.0 612.0 L 656.0 623.0 L 652.0 624.0 L 654.0 625.0 L 641.0 638.0 L 643.0 645.0 L 639.0 650.0 L 636.0 649.0 L 638.0 646.0 L 634.0 650.0 L 631.0 650.0 L 630.0 647.0 L 626.0 646.0 L 625.0 657.0 L 623.0 659.0 L 625.0 668.0 L 622.0 676.0 L 617.0 681.0 L 637.0 682.0 L 632.0 673.0 L 634.0 669.0 L 623.0 661.0 L 626.0 657.0 L 630.0 660.0 L 639.0 659.0 L 645.0 644.0 L 648.0 643.0 L 647.0 641.0 L 652.0 638.0 L 651.0 639.0 L 650.0 637.0 L 655.0 634.0 L 654.0 632.0 L 658.0 628.0 L 656.0 630.0 L 653.0 626.0 L 659.0 620.0 L 661.0 621.0 L 661.0 624.0 L 665.0 622.0 L 667.0 617.0 L 688.0 599.0 L 696.0 587.0 L 695.0 584.0 L 699.0 578.0 L 697.0 578.0 L 698.0 575.0 L 701.0 573.0 L 700.0 574.0 L 699.0 571.0 L 705.0 560.0 L 707.0 561.0 L 704.0 567.0 Z"/>
    <path d="M 427.0 489.0 L 425.0 490.0 L 427.0 495.0 L 424.0 498.0 L 422.0 496.0 L 423.0 501.0 L 421.0 503.0 L 417.0 500.0 L 401.0 509.0 L 399.0 506.0 L 404.0 505.0 L 404.0 503.0 L 400.0 504.0 L 402.0 500.0 L 399.0 503.0 L 395.0 501.0 L 392.0 506.0 L 389.0 506.0 L 385.0 510.0 L 386.0 512.0 L 387.0 510.0 L 389.0 512.0 L 391.0 511.0 L 389.0 509.0 L 390.0 507.0 L 392.0 507.0 L 393.0 510.0 L 397.0 509.0 L 398.0 510.0 L 395.0 513.0 L 399.0 513.0 L 392.0 517.0 L 399.0 514.0 L 398.0 520.0 L 400.0 525.0 L 395.0 527.0 L 394.0 530.0 L 396.0 532.0 L 390.0 535.0 L 389.0 533.0 L 385.0 535.0 L 384.0 532.0 L 386.0 530.0 L 382.0 535.0 L 379.0 534.0 L 377.0 536.0 L 377.0 533.0 L 373.0 539.0 L 376.0 536.0 L 376.0 541.0 L 378.0 540.0 L 379.0 544.0 L 377.0 546.0 L 374.0 543.0 L 370.0 547.0 L 370.0 543.0 L 362.0 552.0 L 364.0 551.0 L 364.0 555.0 L 366.0 554.0 L 366.0 557.0 L 368.0 558.0 L 360.0 563.0 L 357.0 561.0 L 346.0 567.0 L 344.0 572.0 L 348.0 569.0 L 348.0 576.0 L 350.0 577.0 L 348.0 579.0 L 345.0 579.0 L 344.0 577.0 L 342.0 579.0 L 341.0 577.0 L 343.0 574.0 L 341.0 575.0 L 342.0 576.0 L 339.0 578.0 L 338.0 586.0 L 336.0 588.0 L 339.0 591.0 L 336.0 593.0 L 338.0 594.0 L 337.0 595.0 L 342.0 597.0 L 346.0 595.0 L 351.0 584.0 L 361.0 578.0 L 367.0 566.0 L 371.0 562.0 L 373.0 562.0 L 406.0 533.0 L 414.0 529.0 L 414.0 526.0 L 413.0 527.0 L 411.0 524.0 L 413.0 519.0 L 410.0 522.0 L 410.0 519.0 L 406.0 517.0 L 406.0 513.0 L 405.0 514.0 L 405.0 511.0 L 404.0 512.0 L 403.0 510.0 L 407.0 509.0 L 407.0 511.0 L 409.0 510.0 L 412.0 513.0 L 411.0 514.0 L 417.0 514.0 L 417.0 520.0 L 415.0 523.0 L 421.0 514.0 L 421.0 508.0 L 425.0 500.0 L 424.0 498.0 L 430.0 492.0 L 427.0 492.0 Z"/>
    <path d="M 307.0 517.0 L 305.0 521.0 L 300.0 524.0 L 298.0 528.0 L 300.0 529.0 L 297.0 532.0 L 296.0 531.0 L 298.0 533.0 L 294.0 540.0 L 292.0 538.0 L 288.0 541.0 L 287.0 540.0 L 286.0 541.0 L 284.0 536.0 L 283.0 537.0 L 281.0 535.0 L 278.0 539.0 L 283.0 546.0 L 277.0 554.0 L 276.0 552.0 L 278.0 549.0 L 277.0 550.0 L 275.0 548.0 L 273.0 549.0 L 269.0 546.0 L 258.0 554.0 L 259.0 553.0 L 261.0 554.0 L 256.0 558.0 L 255.0 557.0 L 256.0 553.0 L 262.0 548.0 L 250.0 557.0 L 248.0 560.0 L 247.0 559.0 L 245.0 562.0 L 244.0 561.0 L 226.0 579.0 L 224.0 579.0 L 222.0 581.0 L 222.0 584.0 L 219.0 586.0 L 220.0 587.0 L 218.0 591.0 L 215.0 594.0 L 218.0 591.0 L 220.0 592.0 L 228.0 584.0 L 230.0 584.0 L 232.0 581.0 L 238.0 577.0 L 249.0 573.0 L 250.0 570.0 L 254.0 568.0 L 257.0 568.0 L 259.0 565.0 L 270.0 560.0 L 279.0 553.0 L 281.0 554.0 L 296.0 538.0 L 296.0 535.0 L 301.0 531.0 L 307.0 521.0 Z"/>
    <path d="M 692.0 476.0 L 677.0 487.0 L 675.0 486.0 L 673.0 488.0 L 670.0 488.0 L 669.0 489.0 L 670.0 491.0 L 668.0 493.0 L 666.0 491.0 L 665.0 492.0 L 664.0 490.0 L 662.0 492.0 L 659.0 492.0 L 658.0 490.0 L 656.0 492.0 L 658.0 494.0 L 657.0 495.0 L 658.0 500.0 L 663.0 513.0 L 666.0 511.0 L 673.0 512.0 L 674.0 511.0 L 680.0 511.0 L 682.0 509.0 L 684.0 510.0 L 690.0 509.0 L 694.0 507.0 L 694.0 506.0 L 691.0 506.0 L 689.0 508.0 L 680.0 506.0 L 674.0 506.0 L 673.0 507.0 L 669.0 506.0 L 670.0 504.0 L 679.0 503.0 L 690.0 499.0 L 697.0 495.0 L 693.0 480.0 L 691.0 478.0 Z"/>
    <path d="M 1038.0 827.0 L 1036.0 832.0 L 1039.0 834.0 L 1038.0 835.0 L 1041.0 839.0 L 1040.0 840.0 L 1042.0 841.0 L 1041.0 842.0 L 1043.0 844.0 L 1042.0 845.0 L 1044.0 846.0 L 1043.0 847.0 L 1045.0 849.0 L 1044.0 853.0 L 1046.0 854.0 L 1045.0 855.0 L 1047.0 856.0 L 1046.0 858.0 L 1048.0 859.0 L 1047.0 862.0 L 1050.0 863.0 L 1049.0 867.0 L 1050.0 868.0 L 1047.0 873.0 L 1051.0 864.0 L 1053.0 865.0 L 1052.0 873.0 L 1054.0 873.0 L 1056.0 870.0 L 1058.0 870.0 L 1064.0 866.0 L 1067.0 868.0 L 1067.0 866.0 L 1064.0 863.0 L 1064.0 860.0 L 1058.0 845.0 L 1056.0 844.0 L 1057.0 842.0 L 1054.0 839.0 L 1055.0 837.0 L 1052.0 834.0 L 1053.0 832.0 L 1052.0 833.0 L 1051.0 830.0 L 1053.0 835.0 L 1050.0 840.0 L 1045.0 837.0 L 1046.0 838.0 L 1044.0 840.0 L 1041.0 838.0 L 1043.0 835.0 L 1042.0 836.0 L 1041.0 834.0 L 1044.0 832.0 L 1042.0 831.0 L 1040.0 833.0 L 1039.0 832.0 L 1040.0 830.0 L 1039.0 831.0 L 1038.0 830.0 Z"/>
    <path d="M 835.0 815.0 L 833.0 816.0 L 833.0 830.0 L 830.0 832.0 L 833.0 833.0 L 833.0 838.0 L 827.0 843.0 L 825.0 843.0 L 827.0 844.0 L 825.0 846.0 L 824.0 845.0 L 821.0 847.0 L 823.0 848.0 L 822.0 850.0 L 823.0 849.0 L 825.0 850.0 L 825.0 853.0 L 829.0 854.0 L 826.0 857.0 L 825.0 856.0 L 826.0 857.0 L 824.0 859.0 L 821.0 856.0 L 819.0 858.0 L 818.0 857.0 L 818.0 850.0 L 819.0 849.0 L 818.0 846.0 L 818.0 862.0 L 817.0 866.0 L 815.0 868.0 L 814.0 867.0 L 816.0 869.0 L 813.0 873.0 L 835.0 873.0 L 832.0 866.0 L 833.0 862.0 L 833.0 847.0 L 832.0 846.0 L 833.0 844.0 L 833.0 816.0 Z"/>
    <path d="M 645.0 918.0 L 647.0 920.0 L 652.0 919.0 L 654.0 920.0 L 741.0 920.0 L 742.0 917.0 L 745.0 918.0 L 746.0 917.0 L 748.0 918.0 L 749.0 917.0 L 754.0 917.0 L 755.0 918.0 L 756.0 917.0 L 761.0 918.0 L 763.0 917.0 L 793.0 917.0 L 794.0 918.0 L 795.0 917.0 L 805.0 917.0 L 806.0 918.0 L 807.0 917.0 L 813.0 917.0 L 814.0 918.0 L 826.0 918.0 L 827.0 919.0 L 837.0 919.0 L 838.0 918.0 L 824.0 918.0 L 823.0 917.0 L 672.0 917.0 L 671.0 916.0 L 647.0 916.0 Z"/>
    <path d="M 885.0 838.0 L 884.0 839.0 L 886.0 841.0 L 885.0 843.0 L 888.0 844.0 L 885.0 847.0 L 884.0 845.0 L 883.0 846.0 L 881.0 845.0 L 877.0 847.0 L 879.0 848.0 L 876.0 850.0 L 878.0 851.0 L 876.0 853.0 L 878.0 853.0 L 879.0 854.0 L 878.0 856.0 L 881.0 857.0 L 880.0 859.0 L 882.0 859.0 L 884.0 861.0 L 883.0 863.0 L 888.0 861.0 L 894.0 863.0 L 895.0 865.0 L 891.0 868.0 L 888.0 866.0 L 888.0 865.0 L 892.0 869.0 L 891.0 870.0 L 895.0 868.0 L 897.0 869.0 L 896.0 870.0 L 899.0 867.0 L 904.0 866.0 L 901.0 863.0 L 901.0 861.0 L 898.0 859.0 L 898.0 857.0 L 897.0 858.0 L 896.0 857.0 L 896.0 854.0 L 895.0 855.0 L 894.0 854.0 L 894.0 851.0 L 893.0 852.0 L 891.0 847.0 L 889.0 846.0 L 889.0 844.0 L 887.0 843.0 Z"/>
    <path d="M 381.0 846.0 L 382.0 847.0 L 381.0 849.0 L 389.0 855.0 L 388.0 857.0 L 391.0 860.0 L 395.0 861.0 L 399.0 866.0 L 398.0 868.0 L 401.0 869.0 L 405.0 873.0 L 404.0 874.0 L 405.0 876.0 L 407.0 876.0 L 408.0 874.0 L 408.0 846.0 L 407.0 850.0 L 402.0 856.0 L 398.0 855.0 L 395.0 858.0 L 393.0 856.0 L 395.0 852.0 L 394.0 851.0 L 391.0 854.0 L 390.0 852.0 L 388.0 854.0 L 387.0 850.0 L 386.0 851.0 Z"/>
    <path d="M 337.0 401.0 L 333.0 401.0 L 330.0 403.0 L 330.0 406.0 L 327.0 409.0 L 326.0 407.0 L 323.0 409.0 L 320.0 408.0 L 313.0 416.0 L 312.0 415.0 L 313.0 411.0 L 306.0 417.0 L 306.0 419.0 L 303.0 421.0 L 304.0 422.0 L 300.0 426.0 L 303.0 427.0 L 301.0 429.0 L 300.0 428.0 L 296.0 432.0 L 298.0 431.0 L 300.0 432.0 L 291.0 441.0 L 292.0 443.0 L 291.0 445.0 L 293.0 444.0 L 294.0 445.0 L 293.0 446.0 L 296.0 443.0 L 303.0 430.0 L 305.0 430.0 L 307.0 427.0 L 311.0 428.0 L 313.0 427.0 L 312.0 428.0 L 310.0 427.0 L 311.0 422.0 L 313.0 419.0 L 316.0 420.0 L 326.0 409.0 L 328.0 409.0 L 330.0 406.0 L 335.0 402.0 L 337.0 402.0 Z"/>
    <path d="M 233.0 522.0 L 222.0 525.0 L 218.0 528.0 L 212.0 530.0 L 202.0 538.0 L 201.0 537.0 L 202.0 535.0 L 194.0 542.0 L 192.0 542.0 L 191.0 545.0 L 195.0 542.0 L 196.0 543.0 L 194.0 545.0 L 196.0 546.0 L 195.0 547.0 L 196.0 546.0 L 202.0 546.0 L 205.0 544.0 L 209.0 544.0 L 213.0 540.0 L 216.0 541.0 L 217.0 539.0 L 219.0 540.0 L 218.0 537.0 L 221.0 535.0 L 219.0 535.0 L 211.0 540.0 L 209.0 538.0 L 224.0 529.0 L 228.0 525.0 L 232.0 524.0 Z"/>
    <path d="M 555.0 918.0 L 555.0 916.0 L 554.0 917.0 L 553.0 916.0 L 549.0 917.0 L 415.0 917.0 L 501.0 917.0 L 502.0 918.0 L 500.0 920.0 L 462.0 920.0 L 535.0 920.0 L 536.0 919.0 L 542.0 919.0 L 545.0 917.0 L 546.0 919.0 L 548.0 920.0 L 551.0 919.0 L 552.0 921.0 Z"/>
    <path d="M 195.0 918.0 L 328.0 918.0 L 329.0 919.0 L 364.0 919.0 L 365.0 918.0 L 371.0 918.0 L 289.0 918.0 L 288.0 917.0 L 266.0 917.0 L 265.0 916.0 L 263.0 916.0 L 261.0 918.0 L 259.0 916.0 L 234.0 916.0 L 224.0 918.0 Z"/>
    <path d="M 571.0 680.0 L 570.0 674.0 L 568.0 677.0 L 566.0 675.0 L 565.0 676.0 L 562.0 675.0 L 564.0 673.0 L 564.0 670.0 L 566.0 668.0 L 568.0 668.0 L 569.0 664.0 L 566.0 667.0 L 562.0 665.0 L 559.0 668.0 L 562.0 669.0 L 560.0 671.0 L 558.0 671.0 L 556.0 674.0 L 552.0 675.0 L 550.0 673.0 L 551.0 670.0 L 554.0 671.0 L 553.0 669.0 L 548.0 672.0 L 547.0 671.0 L 545.0 672.0 L 549.0 675.0 L 552.0 675.0 L 553.0 676.0 L 552.0 677.0 L 555.0 676.0 L 560.0 679.0 L 559.0 681.0 L 560.0 679.0 L 564.0 681.0 L 567.0 681.0 L 568.0 677.0 L 570.0 677.0 Z"/>
    <path d="M 598.0 445.0 L 589.0 439.0 L 588.0 441.0 L 589.0 444.0 L 587.0 447.0 L 589.0 448.0 L 588.0 451.0 L 586.0 453.0 L 584.0 452.0 L 580.0 455.0 L 576.0 455.0 L 582.0 455.0 L 583.0 457.0 L 587.0 457.0 L 583.0 456.0 L 584.0 454.0 L 587.0 453.0 L 593.0 453.0 L 595.0 455.0 L 597.0 452.0 Z"/>
    <path d="M 1008.0 918.0 L 981.0 918.0 L 978.0 916.0 L 953.0 916.0 L 950.0 918.0 L 923.0 917.0 L 922.0 918.0 L 843.0 918.0 L 841.0 919.0 L 873.0 919.0 L 874.0 918.0 Z"/>
    <path d="M 563.0 150.0 L 567.0 149.0 L 571.0 144.0 L 576.0 144.0 L 577.0 145.0 L 573.0 148.0 L 572.0 146.0 L 571.0 150.0 L 572.0 148.0 L 577.0 145.0 L 581.0 145.0 L 582.0 143.0 L 586.0 144.0 L 587.0 142.0 L 585.0 140.0 L 582.0 140.0 L 575.0 143.0 L 572.0 141.0 L 570.0 142.0 L 567.0 140.0 L 564.0 145.0 Z"/>
    <path d="M 605.0 921.0 L 608.0 919.0 L 609.0 915.0 L 616.0 910.0 L 618.0 912.0 L 624.0 911.0 L 630.0 917.0 L 629.0 921.0 L 623.0 926.0 L 622.0 925.0 L 621.0 926.0 L 618.0 923.0 L 619.0 921.0 L 618.0 919.0 L 617.0 924.0 L 619.0 926.0 L 625.0 927.0 L 629.0 925.0 L 633.0 920.0 L 631.0 916.0 L 632.0 914.0 L 630.0 913.0 L 630.0 911.0 L 629.0 912.0 L 626.0 910.0 L 616.0 910.0 L 612.0 912.0 L 607.0 917.0 L 608.0 918.0 Z"/>
    <path d="M 461.0 478.0 L 458.0 485.0 L 452.0 493.0 L 451.0 492.0 L 449.0 493.0 L 446.0 490.0 L 444.0 490.0 L 447.0 491.0 L 443.0 494.0 L 442.0 492.0 L 441.0 493.0 L 443.0 494.0 L 440.0 497.0 L 442.0 497.0 L 443.0 499.0 L 446.0 497.0 L 448.0 498.0 L 442.0 504.0 L 441.0 503.0 L 439.0 504.0 L 438.0 503.0 L 439.0 501.0 L 437.0 503.0 L 435.0 502.0 L 436.0 506.0 L 434.0 509.0 L 435.0 510.0 L 432.0 513.0 L 454.0 491.0 L 456.0 493.0 L 457.0 491.0 L 456.0 492.0 L 455.0 491.0 L 455.0 489.0 Z"/>
    <path d="M 196.0 757.0 L 195.0 758.0 L 194.0 755.0 L 192.0 758.0 L 187.0 758.0 L 183.0 754.0 L 184.0 750.0 L 180.0 758.0 L 181.0 762.0 L 184.0 763.0 L 181.0 766.0 L 181.0 768.0 L 184.0 763.0 L 193.0 761.0 L 193.0 759.0 Z"/>
    <path d="M 661.0 430.0 L 659.0 432.0 L 657.0 430.0 L 655.0 433.0 L 644.0 442.0 L 645.0 444.0 L 646.0 443.0 L 651.0 443.0 L 651.0 440.0 L 653.0 438.0 L 656.0 438.0 L 661.0 434.0 L 660.0 433.0 Z"/>
    <path d="M 385.0 474.0 L 383.0 477.0 L 384.0 490.0 L 380.0 497.0 L 381.0 503.0 L 379.0 505.0 L 380.0 507.0 L 379.0 511.0 L 382.0 510.0 L 383.0 508.0 L 382.0 509.0 L 381.0 507.0 L 384.0 506.0 L 382.0 505.0 L 382.0 500.0 L 383.0 499.0 L 382.0 494.0 L 384.0 493.0 L 385.0 495.0 L 385.0 490.0 L 386.0 489.0 Z"/>
    <path d="M 601.0 929.0 L 599.0 929.0 L 600.0 930.0 L 598.0 932.0 L 599.0 933.0 L 596.0 936.0 L 600.0 945.0 L 604.0 939.0 L 601.0 932.0 Z"/>
    <path d="M 656.0 849.0 L 655.0 850.0 L 663.0 860.0 L 661.0 863.0 L 660.0 862.0 L 657.0 865.0 L 656.0 864.0 L 659.0 866.0 L 658.0 867.0 L 663.0 868.0 L 664.0 869.0 L 663.0 870.0 L 668.0 865.0 L 672.0 866.0 L 672.0 865.0 L 670.0 866.0 L 669.0 863.0 L 668.0 864.0 L 662.0 859.0 L 659.0 855.0 L 659.0 852.0 L 657.0 852.0 Z"/>
    <path d="M 981.0 834.0 L 979.0 835.0 L 978.0 834.0 L 974.0 845.0 L 971.0 847.0 L 973.0 848.0 L 971.0 853.0 L 968.0 855.0 L 970.0 856.0 L 965.0 866.0 L 969.0 864.0 L 971.0 865.0 L 974.0 863.0 L 971.0 862.0 L 970.0 855.0 L 972.0 851.0 L 974.0 852.0 L 974.0 854.0 L 975.0 850.0 L 974.0 851.0 L 973.0 850.0 L 975.0 847.0 L 974.0 844.0 L 981.0 836.0 Z"/>
    <path d="M 750.0 1048.0 L 751.0 1049.0 L 795.0 1049.0 L 799.0 1048.0 L 784.0 1048.0 L 783.0 1046.0 L 771.0 1046.0 L 768.0 1049.0 L 752.0 1049.0 Z"/>
    <path d="M 395.0 1048.0 L 398.0 1049.0 L 450.0 1049.0 L 449.0 1047.0 L 445.0 1049.0 L 423.0 1049.0 L 422.0 1048.0 L 423.0 1046.0 L 427.0 1046.0 L 412.0 1046.0 L 410.0 1048.0 Z"/>
    <path d="M 1014.0 744.0 L 1012.0 746.0 L 1013.0 747.0 L 1011.0 750.0 L 1012.0 753.0 L 1020.0 754.0 L 1017.0 747.0 L 1018.0 745.0 L 1017.0 746.0 L 1016.0 744.0 Z"/>
    <path d="M 609.0 903.0 L 607.0 904.0 L 605.0 902.0 L 600.0 907.0 L 595.0 907.0 L 597.0 908.0 L 596.0 910.0 L 599.0 912.0 L 598.0 914.0 L 600.0 915.0 L 599.0 917.0 L 605.0 905.0 L 607.0 906.0 Z"/>
    <path d="M 299.0 759.0 L 298.0 762.0 L 298.0 848.0 L 300.0 849.0 L 300.0 861.0 L 299.0 866.0 L 297.0 869.0 L 299.0 866.0 L 300.0 858.0 L 301.0 857.0 L 304.0 858.0 L 306.0 855.0 L 306.0 798.0 L 306.0 844.0 L 305.0 845.0 L 306.0 849.0 L 304.0 851.0 L 303.0 850.0 L 301.0 851.0 L 300.0 849.0 L 303.0 848.0 L 303.0 847.0 L 302.0 848.0 L 298.0 847.0 L 298.0 776.0 L 299.0 775.0 L 298.0 773.0 L 299.0 771.0 L 298.0 763.0 Z"/>
    <path d="M 306.0 442.0 L 303.0 444.0 L 300.0 451.0 L 301.0 452.0 L 299.0 454.0 L 298.0 453.0 L 299.0 455.0 L 295.0 459.0 L 296.0 460.0 L 290.0 467.0 L 291.0 468.0 L 285.0 475.0 L 283.0 475.0 L 282.0 477.0 L 285.0 478.0 L 289.0 473.0 Z"/>
    <path d="M 606.0 321.0 L 605.0 310.0 L 606.0 319.0 L 604.0 321.0 L 597.0 315.0 L 591.0 313.0 L 588.0 314.0 L 597.0 318.0 L 603.0 323.0 L 603.0 325.0 L 603.0 323.0 Z"/>
    <path d="M 857.0 374.0 L 853.0 374.0 L 851.0 376.0 L 850.0 379.0 L 853.0 382.0 L 851.0 385.0 L 852.0 387.0 L 854.0 387.0 L 852.0 385.0 L 853.0 382.0 L 859.0 376.0 Z"/>
    <path d="M 891.0 297.0 L 888.0 299.0 L 890.0 300.0 L 887.0 305.0 L 889.0 306.0 L 889.0 309.0 L 884.0 312.0 L 884.0 313.0 L 887.0 311.0 L 889.0 313.0 L 888.0 325.0 L 889.0 320.0 L 891.0 318.0 L 889.0 314.0 L 889.0 311.0 L 890.0 310.0 L 892.0 311.0 L 890.0 304.0 Z"/>
    <path d="M 569.0 920.0 L 571.0 922.0 L 570.0 924.0 L 576.0 927.0 L 581.0 926.0 L 584.0 922.0 L 582.0 923.0 L 581.0 922.0 L 579.0 924.0 L 575.0 925.0 Z"/>
    <path d="M 677.0 335.0 L 693.0 338.0 L 700.0 342.0 L 711.0 345.0 L 701.0 341.0 L 698.0 341.0 L 688.0 335.0 L 684.0 335.0 L 683.0 332.0 L 679.0 336.0 Z"/>
    <path d="M 716.0 348.0 L 718.0 353.0 L 723.0 358.0 L 724.0 358.0 L 724.0 356.0 L 722.0 357.0 L 718.0 353.0 L 720.0 350.0 L 728.0 352.0 L 734.0 356.0 L 744.0 357.0 L 749.0 360.0 L 749.0 359.0 L 732.0 354.0 L 729.0 352.0 Z"/>
    <path d="M 567.0 267.0 L 568.0 268.0 L 568.0 273.0 L 571.0 280.0 L 569.0 282.0 L 567.0 282.0 L 566.0 284.0 L 567.0 285.0 L 566.0 283.0 L 571.0 281.0 L 575.0 287.0 L 576.0 294.0 L 578.0 294.0 L 578.0 292.0 L 574.0 286.0 L 575.0 284.0 L 572.0 282.0 L 572.0 277.0 L 570.0 275.0 L 568.0 267.0 Z"/>
    <path d="M 456.0 1046.0 L 458.0 1048.0 L 459.0 1052.0 L 461.0 1052.0 L 463.0 1050.0 L 463.0 1046.0 L 458.0 1046.0 L 457.0 1047.0 Z"/>
    <path d="M 858.0 251.0 L 852.0 255.0 L 858.0 257.0 L 855.0 267.0 L 855.0 272.0 L 853.0 274.0 L 855.0 273.0 L 856.0 263.0 L 858.0 259.0 L 858.0 256.0 L 860.0 254.0 L 860.0 252.0 L 859.0 253.0 Z"/>
    <path d="M 635.0 687.0 L 639.0 689.0 L 642.0 689.0 L 643.0 691.0 L 648.0 691.0 L 649.0 690.0 L 648.0 691.0 L 647.0 690.0 L 648.0 687.0 L 646.0 689.0 L 645.0 687.0 L 641.0 687.0 L 639.0 689.0 L 638.0 686.0 Z"/>
    <path d="M 798.0 238.0 L 801.0 238.0 L 802.0 240.0 L 807.0 238.0 L 811.0 238.0 L 811.0 237.0 L 809.0 238.0 L 808.0 236.0 L 804.0 237.0 L 801.0 236.0 L 800.0 237.0 L 799.0 234.0 Z"/>
    <path d="M 602.0 140.0 L 598.0 144.0 L 597.0 143.0 L 595.0 144.0 L 597.0 145.0 L 602.0 144.0 L 603.0 145.0 L 601.0 148.0 L 603.0 147.0 L 604.0 148.0 L 603.0 149.0 L 606.0 151.0 L 606.0 153.0 L 604.0 155.0 L 607.0 153.0 L 604.0 149.0 L 605.0 146.0 L 604.0 142.0 Z"/>
    <path d="M 838.0 253.0 L 832.0 256.0 L 830.0 255.0 L 826.0 256.0 L 824.0 258.0 L 817.0 259.0 L 819.0 260.0 L 817.0 263.0 L 822.0 259.0 L 825.0 259.0 L 826.0 257.0 L 830.0 256.0 L 833.0 257.0 L 834.0 255.0 L 838.0 255.0 Z"/>
    <path d="M 190.0 547.0 L 186.0 552.0 L 185.0 551.0 L 186.0 553.0 L 182.0 560.0 L 190.0 552.0 L 191.0 549.0 L 190.0 550.0 L 189.0 549.0 Z"/>
    <path d="M 488.0 851.0 L 489.0 854.0 L 495.0 860.0 L 492.0 863.0 L 491.0 862.0 L 489.0 864.0 L 490.0 863.0 L 492.0 864.0 L 489.0 867.0 L 491.0 867.0 L 492.0 864.0 L 494.0 865.0 L 493.0 866.0 L 494.0 867.0 L 497.0 864.0 L 496.0 859.0 L 495.0 860.0 L 490.0 855.0 L 490.0 853.0 Z"/>
    <path d="M 537.0 689.0 L 584.0 689.0 L 582.0 688.0 L 581.0 689.0 L 578.0 688.0 L 575.0 689.0 L 574.0 687.0 L 578.0 686.0 L 578.0 685.0 L 575.0 685.0 L 571.0 689.0 L 569.0 688.0 L 568.0 689.0 L 567.0 687.0 L 565.0 689.0 L 563.0 688.0 L 558.0 689.0 L 556.0 685.0 L 556.0 687.0 L 554.0 689.0 L 551.0 688.0 L 550.0 689.0 L 541.0 689.0 L 540.0 688.0 Z"/>
    <path d="M 323.0 640.0 L 322.0 641.0 L 321.0 640.0 L 318.0 643.0 L 320.0 644.0 L 319.0 646.0 L 321.0 651.0 Z"/>
    <path d="M 430.0 514.0 L 426.0 515.0 L 425.0 514.0 L 426.0 512.0 L 425.0 513.0 L 424.0 512.0 L 425.0 510.0 L 422.0 517.0 L 423.0 519.0 L 420.0 521.0 Z"/>
    <path d="M 780.0 456.0 L 778.0 457.0 L 777.0 455.0 L 778.0 457.0 L 775.0 460.0 L 774.0 467.0 L 777.0 464.0 Z"/>
    <path d="M 742.0 1044.0 L 737.0 1048.0 L 739.0 1049.0 L 740.0 1052.0 L 745.0 1047.0 L 743.0 1047.0 Z"/>
    <path d="M 821.0 235.0 L 830.0 236.0 L 832.0 238.0 L 835.0 237.0 L 837.0 234.0 L 835.0 235.0 L 830.0 233.0 L 828.0 236.0 L 823.0 236.0 L 822.0 234.0 L 824.0 232.0 L 826.0 233.0 L 827.0 232.0 L 824.0 232.0 Z"/>
    <path d="M 678.0 872.0 L 679.0 873.0 L 678.0 875.0 L 679.0 874.0 L 683.0 875.0 L 682.0 877.0 L 684.0 875.0 L 691.0 874.0 L 688.0 874.0 L 687.0 872.0 L 686.0 873.0 L 680.0 871.0 Z"/>
    <path d="M 335.0 599.0 L 331.0 606.0 L 336.0 605.0 L 338.0 607.0 L 336.0 609.0 L 339.0 604.0 L 335.0 601.0 Z"/>
    <path d="M 760.0 963.0 L 760.0 987.0 L 763.0 988.0 L 764.0 987.0 L 764.0 981.0 L 762.0 983.0 L 760.0 982.0 L 760.0 964.0 L 761.0 963.0 Z"/>
    <path d="M 289.0 680.0 L 290.0 681.0 L 290.0 686.0 L 288.0 690.0 L 288.0 693.0 L 291.0 694.0 L 292.0 687.0 L 290.0 685.0 L 292.0 684.0 L 290.0 683.0 L 290.0 680.0 Z"/>
    <path d="M 311.0 669.0 L 311.0 672.0 L 306.0 676.0 L 303.0 676.0 L 303.0 677.0 L 306.0 678.0 L 304.0 680.0 L 302.0 679.0 L 303.0 681.0 L 307.0 682.0 L 306.0 679.0 L 307.0 675.0 L 309.0 674.0 L 310.0 675.0 L 309.0 676.0 L 310.0 675.0 L 312.0 676.0 L 311.0 683.0 L 313.0 680.0 L 312.0 681.0 L 311.0 680.0 L 313.0 678.0 L 311.0 674.0 Z"/>
    <path d="M 775.0 368.0 L 776.0 369.0 L 776.0 375.0 L 781.0 374.0 L 785.0 377.0 L 789.0 376.0 L 789.0 375.0 L 787.0 376.0 L 777.0 372.0 Z"/>
    <path d="M 238.0 546.0 L 227.0 551.0 L 225.0 549.0 L 226.0 550.0 L 224.0 552.0 L 221.0 553.0 L 218.0 556.0 L 214.0 557.0 L 209.0 561.0 L 211.0 559.0 L 214.0 559.0 L 219.0 555.0 Z"/>
    <path d="M 305.0 651.0 L 305.0 656.0 L 303.0 658.0 L 306.0 657.0 L 309.0 658.0 L 310.0 660.0 L 312.0 660.0 L 311.0 657.0 L 310.0 658.0 L 309.0 655.0 L 305.0 653.0 Z"/>
    <path d="M 734.0 503.0 L 728.0 498.0 L 727.0 499.0 L 729.0 500.0 L 725.0 506.0 L 719.0 506.0 L 714.0 504.0 L 713.0 501.0 L 711.0 500.0 L 714.0 504.0 L 718.0 506.0 L 732.0 506.0 L 728.0 505.0 L 729.0 501.0 Z"/>
    <path d="M 362.0 421.0 L 356.0 429.0 L 356.0 432.0 L 354.0 434.0 L 352.0 440.0 L 352.0 444.0 L 354.0 436.0 L 359.0 428.0 L 360.0 423.0 Z"/>
    <path d="M 585.0 216.0 L 588.0 219.0 L 589.0 218.0 L 592.0 219.0 L 597.0 228.0 L 601.0 224.0 L 597.0 228.0 L 596.0 223.0 L 594.0 222.0 L 593.0 218.0 L 591.0 218.0 L 590.0 215.0 Z"/>
    <path d="M 848.0 989.0 L 849.0 991.0 L 865.0 991.0 L 863.0 989.0 L 857.0 989.0 L 855.0 991.0 L 853.0 990.0 L 852.0 991.0 L 851.0 989.0 L 849.0 991.0 Z"/>
    <path d="M 642.0 855.0 L 647.0 860.0 L 650.0 860.0 L 650.0 858.0 L 649.0 859.0 L 644.0 854.0 Z"/>
    <path d="M 384.0 454.0 L 383.0 457.0 L 383.0 472.0 L 385.0 471.0 L 384.0 469.0 Z"/>
    <path d="M 148.0 840.0 L 147.0 843.0 L 144.0 845.0 L 145.0 849.0 L 143.0 853.0 L 139.0 856.0 L 140.0 855.0 L 142.0 856.0 L 137.0 861.0 L 138.0 860.0 L 140.0 861.0 L 136.0 867.0 L 138.0 865.0 L 142.0 856.0 L 145.0 857.0 L 145.0 854.0 L 143.0 852.0 Z"/>
    <path d="M 331.0 608.0 L 330.0 612.0 L 324.0 624.0 L 321.0 627.0 L 319.0 633.0 L 325.0 623.0 L 330.0 625.0 L 331.0 622.0 L 327.0 623.0 L 326.0 620.0 L 328.0 615.0 L 330.0 613.0 L 333.0 613.0 L 330.0 612.0 Z"/>
    <path d="M 479.0 212.0 L 483.0 216.0 L 486.0 213.0 L 490.0 213.0 Z"/>
    <path d="M 513.0 871.0 L 515.0 872.0 L 513.0 874.0 L 518.0 875.0 L 516.0 877.0 L 521.0 874.0 L 527.0 874.0 L 523.0 874.0 L 522.0 873.0 L 523.0 871.0 L 521.0 873.0 Z"/>
    <path d="M 527.0 393.0 L 525.0 396.0 L 527.0 397.0 L 526.0 402.0 L 524.0 404.0 L 526.0 405.0 L 525.0 408.0 L 526.0 413.0 L 526.0 405.0 L 528.0 403.0 L 527.0 402.0 L 528.0 397.0 L 526.0 396.0 Z"/>
    <path d="M 476.0 450.0 L 476.0 454.0 L 479.0 456.0 L 481.0 454.0 L 480.0 452.0 L 478.0 452.0 Z"/>
    <path d="M 859.0 237.0 L 855.0 236.0 L 856.0 232.0 L 853.0 236.0 L 849.0 237.0 L 852.0 239.0 L 854.0 237.0 Z"/>
    <path d="M 289.0 446.0 L 286.0 450.0 L 287.0 452.0 L 285.0 454.0 L 284.0 453.0 L 284.0 457.0 L 282.0 459.0 L 280.0 459.0 L 279.0 462.0 L 286.0 455.0 L 286.0 453.0 L 289.0 449.0 Z"/>
    <path d="M 430.0 991.0 L 447.0 991.0 L 448.0 990.0 L 444.0 991.0 L 443.0 989.0 L 439.0 989.0 L 437.0 991.0 L 434.0 990.0 L 433.0 991.0 L 432.0 989.0 Z"/>
    <path d="M 472.0 855.0 L 482.0 861.0 L 481.0 863.0 L 482.0 863.0 L 482.0 861.0 L 478.0 856.0 L 477.0 857.0 L 474.0 854.0 Z"/>
    <path d="M 698.0 978.0 L 698.0 983.0 L 696.0 985.0 L 694.0 984.0 L 694.0 979.0 L 694.0 987.0 L 696.0 988.0 L 698.0 987.0 Z"/>
    <path d="M 587.0 911.0 L 585.0 911.0 L 584.0 909.0 L 583.0 910.0 L 575.0 910.0 L 578.0 910.0 L 579.0 911.0 L 578.0 912.0 L 583.0 911.0 L 586.0 912.0 Z"/>
    <path d="M 744.0 845.0 L 741.0 849.0 L 740.0 847.0 L 741.0 851.0 L 729.0 864.0 L 738.0 855.0 L 743.0 856.0 L 744.0 857.0 L 743.0 858.0 L 745.0 857.0 L 742.0 855.0 L 743.0 852.0 L 740.0 855.0 L 739.0 854.0 Z"/>
    <path d="M 917.0 600.0 L 915.0 602.0 L 914.0 601.0 L 912.0 604.0 L 910.0 604.0 L 914.0 605.0 L 913.0 608.0 L 915.0 608.0 L 914.0 606.0 L 916.0 604.0 Z"/>
    <path d="M 688.0 534.0 L 689.0 536.0 L 687.0 538.0 L 688.0 540.0 L 685.0 545.0 L 687.0 546.0 L 686.0 547.0 L 687.0 549.0 L 688.0 537.0 L 689.0 536.0 Z"/>
    <path d="M 662.0 438.0 L 660.0 438.0 L 655.0 444.0 L 653.0 444.0 L 645.0 449.0 L 654.0 445.0 Z"/>
    <path d="M 822.0 508.0 L 826.0 507.0 L 827.0 510.0 L 829.0 509.0 L 828.0 506.0 L 824.0 506.0 Z"/>
    <path d="M 613.0 424.0 L 610.0 427.0 L 609.0 426.0 L 610.0 430.0 L 608.0 432.0 L 609.0 433.0 L 607.0 435.0 L 608.0 436.0 L 606.0 438.0 L 607.0 439.0 L 609.0 431.0 Z"/>
    <path d="M 592.0 142.0 L 586.0 147.0 L 588.0 145.0 L 590.0 145.0 L 591.0 146.0 L 590.0 149.0 L 593.0 147.0 Z"/>
    <path d="M 890.0 965.0 L 890.0 972.0 L 888.0 974.0 L 890.0 979.0 L 886.0 983.0 L 890.0 981.0 Z"/>
    <path d="M 351.0 974.0 L 351.0 977.0 L 354.0 976.0 L 356.0 977.0 L 356.0 973.0 L 354.0 976.0 L 353.0 973.0 Z"/>
    <path d="M 730.0 273.0 L 723.0 279.0 L 724.0 280.0 L 721.0 283.0 L 720.0 282.0 L 719.0 283.0 L 715.0 282.0 L 717.0 284.0 L 714.0 287.0 L 716.0 285.0 L 719.0 287.0 L 718.0 285.0 L 721.0 284.0 L 724.0 280.0 L 724.0 278.0 Z"/>
    <path d="M 757.0 257.0 L 755.0 256.0 L 746.0 257.0 L 748.0 258.0 L 741.0 265.0 L 743.0 265.0 L 750.0 257.0 L 755.0 258.0 Z"/>
    <path d="M 537.0 348.0 L 536.0 351.0 L 546.0 359.0 L 542.0 356.0 Z"/>
    <path d="M 522.0 179.0 L 524.0 181.0 L 525.0 180.0 L 533.0 180.0 L 534.0 181.0 L 535.0 180.0 L 540.0 180.0 L 528.0 180.0 L 526.0 177.0 L 524.0 179.0 Z"/>
    <path d="M 588.0 913.0 L 590.0 914.0 L 590.0 916.0 L 595.0 921.0 L 591.0 915.0 L 591.0 913.0 L 590.0 914.0 Z"/>
    <path d="M 897.0 358.0 L 895.0 357.0 L 893.0 359.0 L 891.0 359.0 L 896.0 360.0 Z"/>
    <path d="M 785.0 268.0 L 782.0 271.0 L 784.0 273.0 L 782.0 276.0 L 784.0 276.0 L 785.0 274.0 L 784.0 272.0 Z"/>
    <path d="M 596.0 477.0 L 597.0 478.0 L 596.0 482.0 L 594.0 484.0 L 595.0 485.0 L 593.0 487.0 L 594.0 489.0 L 592.0 493.0 L 597.0 480.0 Z"/>
    <path d="M 672.0 393.0 L 670.0 398.0 L 671.0 407.0 L 671.0 395.0 Z"/>
    <path d="M 556.0 337.0 L 559.0 339.0 L 568.0 337.0 Z"/>
    <path d="M 487.0 227.0 L 488.0 231.0 L 493.0 229.0 L 490.0 229.0 L 489.0 227.0 Z"/>
    <path d="M 868.0 358.0 L 866.0 357.0 L 861.0 358.0 L 861.0 359.0 L 867.0 359.0 Z"/>
    <path d="M 857.0 319.0 L 858.0 329.0 L 858.0 319.0 Z"/>
    <path d="M 896.0 312.0 L 894.0 313.0 L 895.0 314.0 L 894.0 325.0 L 895.0 324.0 Z"/>
    <path d="M 696.0 1046.0 L 698.0 1048.0 L 705.0 1049.0 L 706.0 1051.0 L 707.0 1050.0 L 707.0 1048.0 L 705.0 1049.0 L 702.0 1047.0 L 698.0 1048.0 L 697.0 1045.0 Z"/>
    <path d="M 236.0 860.0 L 240.0 868.0 L 241.0 866.0 L 239.0 865.0 L 237.0 860.0 Z"/>
    <path d="M 295.0 693.0 L 296.0 695.0 L 293.0 697.0 L 294.0 699.0 L 299.0 699.0 L 296.0 698.0 L 297.0 696.0 Z"/>
    <path d="M 245.0 526.0 L 241.0 531.0 L 246.0 530.0 Z"/>
    <path d="M 852.0 510.0 L 853.0 511.0 L 852.0 513.0 L 857.0 518.0 L 855.0 516.0 L 855.0 513.0 Z"/>
    <path d="M 298.0 500.0 L 296.0 502.0 L 289.0 517.0 Z"/>
    <path d="M 340.0 433.0 L 336.0 440.0 L 340.0 436.0 Z"/>
    <path d="M 913.0 872.0 L 911.0 873.0 L 908.0 870.0 L 909.0 871.0 L 907.0 873.0 L 904.0 873.0 L 909.0 873.0 L 910.0 874.0 L 908.0 876.0 L 904.0 876.0 L 908.0 876.0 L 910.0 874.0 L 912.0 874.0 Z"/>
    <path d="M 579.0 164.0 L 577.0 169.0 L 579.0 168.0 L 580.0 169.0 L 579.0 171.0 L 580.0 171.0 L 582.0 168.0 L 580.0 169.0 L 578.0 167.0 Z"/>
    <path d="M 291.0 980.0 L 294.0 983.0 L 297.0 983.0 L 299.0 985.0 L 301.0 985.0 L 302.0 986.0 L 301.0 989.0 L 302.0 989.0 L 302.0 984.0 L 299.0 985.0 L 297.0 983.0 L 297.0 980.0 L 294.0 983.0 Z"/>
    <path d="M 314.0 690.0 L 315.0 695.0 L 319.0 696.0 L 316.0 695.0 L 316.0 691.0 Z"/>
    <path d="M 270.0 494.0 L 267.0 495.0 L 267.0 498.0 L 252.0 509.0 L 265.0 500.0 Z"/>
    <path d="M 629.0 407.0 L 627.0 407.0 L 626.0 410.0 L 629.0 409.0 Z"/>
    <path d="M 373.0 838.0 L 372.0 839.0 L 375.0 842.0 L 375.0 839.0 Z"/>
    <path d="M 237.0 534.0 L 234.0 534.0 L 230.0 537.0 L 228.0 536.0 L 230.0 537.0 L 233.0 536.0 L 234.0 537.0 Z"/>
    <path d="M 830.0 376.0 L 825.0 374.0 L 822.0 376.0 L 817.0 375.0 L 821.0 376.0 L 827.0 375.0 L 828.0 377.0 Z"/>
    <path d="M 641.0 335.0 L 636.0 336.0 L 638.0 338.0 Z"/>
    <path d="M 640.0 304.0 L 639.0 304.0 L 638.0 308.0 L 634.0 314.0 L 635.0 314.0 L 637.0 309.0 L 639.0 308.0 Z"/>
    <path d="M 880.0 300.0 L 878.0 299.0 L 873.0 303.0 L 876.0 303.0 L 878.0 300.0 Z"/>
    <path d="M 849.0 253.0 L 846.0 254.0 L 849.0 256.0 L 847.0 259.0 L 850.0 257.0 L 848.0 255.0 Z"/>
    <path d="M 612.0 246.0 L 609.0 248.0 L 609.0 252.0 Z"/>
    <path d="M 280.0 967.0 L 278.0 967.0 L 279.0 971.0 L 277.0 973.0 L 277.0 982.0 L 277.0 975.0 L 279.0 973.0 Z"/>
    <path d="M 628.0 688.0 L 623.0 688.0 L 621.0 690.0 L 615.0 690.0 L 624.0 690.0 L 626.0 688.0 Z"/>
    <path d="M 564.0 661.0 L 569.0 662.0 L 567.0 660.0 L 567.0 658.0 Z"/>
    <path d="M 380.0 463.0 L 379.0 464.0 L 380.0 472.0 Z"/>
    <path d="M 536.0 364.0 L 535.0 369.0 L 538.0 367.0 L 536.0 366.0 Z"/>
    <path d="M 889.0 258.0 L 888.0 259.0 L 890.0 260.0 L 889.0 262.0 L 891.0 263.0 Z"/>
    <path d="M 522.0 187.0 L 518.0 187.0 L 513.0 191.0 L 520.0 187.0 Z"/>
    <path d="M 952.0 986.0 L 951.0 987.0 L 950.0 985.0 L 947.0 990.0 Z"/>
    <path d="M 595.0 496.0 L 595.0 499.0 L 597.0 500.0 L 600.0 499.0 L 599.0 498.0 L 596.0 499.0 Z"/>
    <path d="M 260.0 474.0 L 259.0 473.0 L 257.0 475.0 L 255.0 474.0 L 254.0 475.0 L 258.0 476.0 Z"/>
    <path d="M 586.0 305.0 L 585.0 306.0 L 587.0 307.0 L 586.0 308.0 L 588.0 308.0 L 588.0 305.0 Z"/>
    <path d="M 612.0 931.0 L 611.0 932.0 L 610.0 930.0 L 608.0 932.0 L 608.0 934.0 Z"/>
    <path d="M 892.0 606.0 L 894.0 604.0 L 896.0 605.0 L 898.0 603.0 L 905.0 603.0 L 894.0 603.0 Z"/>
    <path d="M 894.0 569.0 L 896.0 574.0 L 897.0 572.0 Z"/>
    <path d="M 716.0 498.0 L 713.0 494.0 L 711.0 497.0 L 708.0 495.0 L 709.0 497.0 L 714.0 495.0 Z"/>
    <path d="M 644.0 456.0 L 642.0 457.0 L 643.0 459.0 L 642.0 463.0 L 644.0 462.0 L 643.0 460.0 Z"/>
    <path d="M 880.0 406.0 L 876.0 411.0 L 875.0 409.0 L 876.0 412.0 L 879.0 409.0 Z"/>
    <path d="M 376.0 395.0 L 378.0 396.0 L 382.0 394.0 Z"/>
    <path d="M 878.0 356.0 L 870.0 357.0 L 875.0 357.0 L 876.0 358.0 Z"/>
    <path d="M 563.0 300.0 L 560.0 303.0 L 562.0 304.0 L 561.0 305.0 Z"/>
    <path d="M 865.0 258.0 L 867.0 259.0 L 865.0 261.0 L 866.0 262.0 L 865.0 267.0 L 867.0 268.0 L 872.0 263.0 L 867.0 267.0 L 866.0 266.0 L 866.0 260.0 L 867.0 259.0 Z"/>
    <path d="M 555.0 1040.0 L 555.0 1060.0 L 554.0 1061.0 L 557.0 1062.0 L 559.0 1061.0 L 557.0 1062.0 L 555.0 1061.0 L 557.0 1057.0 L 556.0 1058.0 L 555.0 1057.0 Z"/>
    <path d="M 775.0 983.0 L 774.0 986.0 L 777.0 986.0 L 778.0 987.0 L 777.0 988.0 L 779.0 988.0 Z"/>
    <path d="M 548.0 812.0 L 550.0 814.0 L 554.0 812.0 Z"/>
    <path d="M 860.0 526.0 L 857.0 529.0 L 855.0 527.0 L 851.0 527.0 L 853.0 529.0 L 854.0 528.0 L 857.0 529.0 Z"/>
    <path d="M 324.0 439.0 L 321.0 444.0 L 323.0 443.0 Z"/>
    <path d="M 891.0 402.0 L 887.0 403.0 L 886.0 405.0 Z"/>
    <path d="M 555.0 341.0 L 557.0 346.0 L 558.0 341.0 L 557.0 342.0 Z"/>
    <path d="M 562.0 288.0 L 560.0 290.0 L 559.0 289.0 L 558.0 291.0 L 560.0 293.0 Z"/>
    <path d="M 879.0 280.0 L 877.0 282.0 L 875.0 282.0 L 874.0 279.0 L 869.0 282.0 L 870.0 281.0 L 878.0 282.0 Z"/>
    <path d="M 885.0 262.0 L 880.0 265.0 L 884.0 264.0 Z"/>
    <path d="M 879.0 246.0 L 878.0 246.0 L 875.0 252.0 L 875.0 256.0 L 875.0 252.0 L 878.0 249.0 Z"/>
    <path d="M 524.0 200.0 L 519.0 208.0 L 520.0 208.0 Z"/>
    <path d="M 495.0 1060.0 L 492.0 1062.0 L 495.0 1062.0 Z"/>
    <path d="M 510.0 979.0 L 512.0 981.0 L 511.0 982.0 L 512.0 982.0 L 512.0 978.0 Z"/>
    <path d="M 715.0 872.0 L 707.0 874.0 L 712.0 874.0 Z"/>
    <path d="M 670.0 597.0 L 669.0 600.0 L 663.0 606.0 L 668.0 602.0 Z"/>
    <path d="M 903.0 574.0 L 902.0 575.0 L 904.0 578.0 L 903.0 582.0 L 904.0 581.0 Z"/>
    <path d="M 746.0 508.0 L 748.0 506.0 L 751.0 506.0 L 753.0 509.0 L 756.0 507.0 L 747.0 506.0 Z"/>
    <path d="M 450.0 502.0 L 445.0 507.0 L 441.0 509.0 L 440.0 512.0 Z"/>
    <path d="M 455.0 378.0 L 454.0 376.0 L 451.0 379.0 L 450.0 378.0 L 447.0 379.0 L 449.0 378.0 L 450.0 380.0 L 452.0 378.0 Z"/>
    <path d="M 650.0 366.0 L 649.0 367.0 L 652.0 370.0 Z"/>
    <path d="M 853.0 294.0 L 853.0 299.0 L 854.0 300.0 L 853.0 304.0 L 855.0 302.0 L 854.0 299.0 L 857.0 298.0 L 857.0 296.0 L 856.0 296.0 L 854.0 299.0 Z"/>
    <path d="M 389.0 835.0 L 396.0 842.0 L 391.0 837.0 L 391.0 834.0 Z"/>
    <path d="M 315.0 685.0 L 312.0 687.0 L 315.0 688.0 Z"/>
    <path d="M 547.0 664.0 L 547.0 666.0 L 549.0 665.0 L 550.0 667.0 L 553.0 665.0 L 548.0 665.0 Z"/>
    <path d="M 513.0 620.0 L 514.0 621.0 L 513.0 623.0 L 515.0 625.0 L 514.0 624.0 L 515.0 621.0 Z"/>
    <path d="M 234.0 517.0 L 233.0 518.0 L 232.0 517.0 L 233.0 518.0 L 231.0 520.0 L 229.0 518.0 L 230.0 519.0 L 228.0 521.0 L 227.0 520.0 L 224.0 522.0 L 231.0 520.0 Z"/>
    <path d="M 261.0 494.0 L 257.0 496.0 L 259.0 496.0 Z"/>
    <path d="M 704.0 485.0 L 703.0 486.0 L 705.0 487.0 L 704.0 488.0 L 705.0 491.0 L 706.0 488.0 Z"/>
    <path d="M 636.0 474.0 L 641.0 473.0 L 637.0 472.0 Z"/>
    <path d="M 370.0 388.0 L 371.0 387.0 L 378.0 388.0 L 378.0 387.0 L 371.0 387.0 Z"/>
    <path d="M 463.0 375.0 L 462.0 373.0 L 459.0 375.0 Z"/>
    <path d="M 875.0 368.0 L 877.0 370.0 L 877.0 367.0 Z"/>
    <path d="M 801.0 366.0 L 802.0 368.0 L 804.0 367.0 L 805.0 369.0 L 808.0 369.0 L 808.0 368.0 L 806.0 369.0 Z"/>
    <path d="M 884.0 356.0 L 888.0 355.0 L 884.0 355.0 Z"/>
    <path d="M 542.0 317.0 L 540.0 317.0 L 539.0 319.0 Z"/>
    <path d="M 533.0 1052.0 L 533.0 1050.0 L 530.0 1051.0 Z"/>
    <path d="M 760.0 991.0 L 766.0 991.0 L 765.0 990.0 Z"/>
    <path d="M 217.0 976.0 L 216.0 975.0 L 211.0 976.0 Z"/>
    <path d="M 201.0 568.0 L 197.0 571.0 L 198.0 572.0 L 197.0 573.0 L 199.0 572.0 L 199.0 570.0 Z"/>
    <path d="M 374.0 528.0 L 370.0 532.0 L 373.0 531.0 Z"/>
    <path d="M 826.0 519.0 L 833.0 522.0 L 834.0 525.0 L 835.0 522.0 L 832.0 522.0 L 830.0 520.0 Z"/>
    <path d="M 241.0 514.0 L 246.0 512.0 L 243.0 512.0 Z"/>
    <path d="M 699.0 480.0 L 702.0 484.0 L 703.0 483.0 L 701.0 482.0 L 701.0 480.0 Z"/>
    <path d="M 763.0 471.0 L 769.0 474.0 L 771.0 473.0 L 770.0 472.0 L 767.0 473.0 Z"/>
    <path d="M 659.0 390.0 L 661.0 392.0 L 660.0 393.0 L 661.0 395.0 L 662.0 394.0 Z"/>
    <path d="M 553.0 373.0 L 551.0 371.0 L 550.0 374.0 Z"/>
    <path d="M 705.0 294.0 L 702.0 296.0 L 700.0 295.0 L 702.0 299.0 L 701.0 301.0 L 702.0 300.0 L 704.0 301.0 L 701.0 297.0 Z"/>
    <path d="M 867.0 278.0 L 863.0 281.0 L 867.0 280.0 Z"/>
    <path d="M 785.0 241.0 L 783.0 240.0 L 780.0 244.0 L 782.0 241.0 Z"/>
  </g>
</svg>
